<?xml version="1.0" encoding="utf-8"?>
<!-- Generator: Adobe Illustrator 17.0.0, SVG Export Plug-In . SVG Version: 6.00 Build 0)  -->
<!DOCTYPE svg PUBLIC "-//W3C//DTD SVG 1.1//EN" "http://www.w3.org/Graphics/SVG/1.1/DTD/svg11.dtd">
<svg version="1.1" id="Слой_1" xmlns="http://www.w3.org/2000/svg" xmlns:xlink="http://www.w3.org/1999/xlink" x="0px" y="0px"
	 width="45px" height="45px" viewBox="0 0 45 45" enable-background="new 0 0 45 45" xml:space="preserve">
<g>
	<g>
		<path fill="#FFFFFF" d="M22.50039,38.05965c-3.39609,0-6.61947-1.08214-9.33821-3.12794L7.6614,36.4319
			c-0.2046,0.0547-0.41829-0.00443-0.56377-0.15456c-0.14106-0.1499-0.1932-0.36824-0.13198-0.56819l1.85493-5.80548
			c-1.22972-2.27322-1.87984-4.82832-1.87984-7.406c0-8.57869,6.98073-15.55732,15.55965-15.55732
			c8.58101,0,15.55942,6.97864,15.55942,15.55732C38.05981,31.07659,31.08141,38.05965,22.50039,38.05965z M13.28508,33.73597
			c0.12732,0,0.24999,0.04097,0.35241,0.11825c2.56162,2.00483,5.62811,3.06416,8.8629,3.06416
			c7.95138,0,14.41606-6.46934,14.41606-14.42071c0-7.94672-6.46468-14.41606-14.41606-14.41606S8.0841,14.55095,8.0841,22.49767
			c0,2.46409,0.64104,4.91002,1.85493,7.06499c0.07728,0.1364,0.09078,0.30004,0.04539,0.4546l-1.60936,5.03711l4.75988-1.30001
			C13.18732,33.74063,13.23504,33.73597,13.28508,33.73597z"/>
	</g>
	<g>
		<path fill="#FFFFFF" d="M20.91826,31.17203c0-0.76837,0.63639-1.40941,1.43199-1.40941s1.43432,0.61381,1.43432,1.40941
			s-0.63872,1.43199-1.40709,1.43199C21.58189,32.60402,20.91826,31.99486,20.91826,31.17203z M21.02278,25.88911V14.85099
			c0-0.74579,0.58425-1.32771,1.32748-1.32771c0.74346,0,1.32748,0.58192,1.32748,1.32771v11.03812
			c0,0.71832-0.58401,1.32771-1.32748,1.32771C21.60703,27.21682,21.02278,26.60744,21.02278,25.88911z"/>
	</g>
</g>
</svg>
