<?xml version="1.0" encoding="utf-8"?>
<!-- Generator: Adobe Illustrator 17.0.0, SVG Export Plug-In . SVG Version: 6.00 Build 0)  -->
<!DOCTYPE svg PUBLIC "-//W3C//DTD SVG 1.1//EN" "http://www.w3.org/Graphics/SVG/1.1/DTD/svg11.dtd">
<svg version="1.1" id="Слой_1" xmlns="http://www.w3.org/2000/svg" xmlns:xlink="http://www.w3.org/1999/xlink" x="0px" y="0px"
	 width="45px" height="45px" viewBox="0 0 45 45" enable-background="new 0 0 45 45" xml:space="preserve">
<path fill="#9C9C9B" d="M27.98287,36.87827l-8.21973-14.3833l8.21973-14.38403c0.18066-0.31519,0.22705-0.68213,0.13135-1.03272
	s-0.32178-0.64282-0.63525-0.82178c-0.62988-0.36255-1.49902-0.12427-1.8584,0.50488l-8.60547,15.05884
	c-0.2373,0.41626-0.2373,0.93335,0,1.34912l8.60449,15.05786c0.2417,0.42358,0.69482,0.68677,1.18311,0.68677
	c0.23828,0,0.47217-0.0625,0.67432-0.17969c0.31543-0.17993,0.54199-0.47241,0.63721-0.823
	C28.20992,37.56064,28.16353,37.1937,27.98287,36.87827z"/>
</svg>
