<?xml version="1.0" encoding="utf-8"?>
<!-- Generator: Adobe Illustrator 17.0.0, SVG Export Plug-In . SVG Version: 6.00 Build 0)  -->
<!DOCTYPE svg PUBLIC "-//W3C//DTD SVG 1.1//EN" "http://www.w3.org/Graphics/SVG/1.1/DTD/svg11.dtd">
<svg version="1.1" id="Слой_1" xmlns="http://www.w3.org/2000/svg" xmlns:xlink="http://www.w3.org/1999/xlink" x="0px" y="0px"
	 width="100px" height="100px" viewBox="0 0 100 100" enable-background="new 0 0 100 100" xml:space="preserve">
<path fill="#FFFFFF" d="M52.94044,38.91532h-0.74512V26.68436c0-0.51904-0.3042-0.99805-0.77734-1.22119
	c-0.46289-0.21582-1.03516-0.14258-1.43359,0.18652L24.54982,46.8577c-0.31055,0.25879-0.4873,0.63965-0.48438,1.04492
	c0.00195,0.40527,0.18457,0.78418,0.5,1.03906l25.43555,20.53174c0.39453,0.31738,0.97266,0.38525,1.42773,0.16748
	c0.46582-0.22217,0.7666-0.69922,0.7666-1.21582v-9.85791h0.74512c6.10352,0,20.29834,1.43701,20.29834,14.74414
	c0,0.74316,0.60498,1.34814,1.34814,1.34814s1.34766-0.60498,1.34766-1.34814V57.22929
	C75.93459,43.72587,64.05666,38.91532,52.94044,38.91532z M50.84767,41.61063h2.09277c9.81299,0,20.29834,4.10303,20.29834,15.61865
	v6.68555c-3.59912-5.27148-10.56592-8.04346-20.29834-8.04346h-2.09277c-0.74316,0-1.34766,0.60449-1.34766,1.34766v8.38574
	l-21.9624-17.72754l21.9624-18.31348v10.69922C49.50002,41.00614,50.10451,41.61063,50.84767,41.61063z"/>
</svg>
