<?xml version="1.0" encoding="utf-8"?>
<!-- Generator: Adobe Illustrator 17.0.0, SVG Export Plug-In . SVG Version: 6.00 Build 0)  -->
<!DOCTYPE svg PUBLIC "-//W3C//DTD SVG 1.1//EN" "http://www.w3.org/Graphics/SVG/1.1/DTD/svg11.dtd">
<svg version="1.1" id="Слой_1" xmlns="http://www.w3.org/2000/svg" xmlns:xlink="http://www.w3.org/1999/xlink" x="0px" y="0px"
	 width="40px" height="40px" viewBox="0 0 40 40" enable-background="new 0 0 40 40" xml:space="preserve">
<path fill="#FFFFFF" d="M20,35.65052c-8.62975,0-15.65052-7.02079-15.65052-15.65054c0-8.62971,7.02078-15.65051,15.65052-15.65051
	s15.65052,7.02079,15.65052,15.65051C35.65052,28.62973,28.62974,35.65052,20,35.65052z M20,6.16403
	c-7.63037,0-13.83596,6.20741-13.83596,13.83595c0,7.62857,6.20559,13.83599,13.83596,13.83599
	c7.62856,0,13.83596-6.20741,13.83596-13.83599C33.83596,12.37144,27.62856,6.16403,20,6.16403z"/>
<path fill="#FFFFFF" d="M20-38.02551c-8.62975,0-15.65051,7.02076-15.65051,15.65051S11.37025-6.72449,20-6.72449
	S35.65051-13.74525,35.65051-22.375S28.62975-38.02551,20-38.02551z M31.02001-29.17091L19.73995-12.17217
	c-0.3168,0.47744-0.82492,0.78253-1.39439,0.83719l-0.18462,0.01004c-0.50142,0-0.99058-0.20358-1.34252-0.55776l-7.59608-7.59441
	c-0.73846-0.73847-0.73846-1.94044,0-2.67891c0.7156-0.71616,1.96218-0.71727,2.6789,0l5.9613,5.96019l9.99834-15.06612
	c0.55441-0.83775,1.7759-1.08818,2.61867-0.53656C31.35411-31.21676,31.59282-30.04046,31.02001-29.17091z"/>
</svg>
