<?xml version="1.0" encoding="utf-8"?>
<!-- Generator: Adobe Illustrator 17.0.0, SVG Export Plug-In . SVG Version: 6.00 Build 0)  -->
<!DOCTYPE svg PUBLIC "-//W3C//DTD SVG 1.1//EN" "http://www.w3.org/Graphics/SVG/1.1/DTD/svg11.dtd">
<svg version="1.1" id="Слой_1" xmlns="http://www.w3.org/2000/svg" xmlns:xlink="http://www.w3.org/1999/xlink" x="0px" y="0px"
	 width="40px" height="40px" viewBox="0 0 40 40" enable-background="new 0 0 40 40" xml:space="preserve">
<path fill="#FFFFFF" d="M20.00002,6.29895C12.44521,6.29895,6.29897,12.44519,6.29897,20s6.14624,13.70105,13.70105,13.70105
	S33.70107,27.55481,33.70107,20S27.55483,6.29895,20.00002,6.29895z M29.64736,14.0506l-9.875,14.88135
	c-0.27734,0.41797-0.72217,0.68506-1.2207,0.73291l-0.16162,0.00879c-0.43896,0-0.86719-0.17822-1.17529-0.48828l-6.6499-6.64844
	c-0.64648-0.64648-0.64648-1.69873,0-2.34521c0.62646-0.62695,1.71777-0.62793,2.34521,0l5.21875,5.21777l8.75293-13.18945
	c0.48535-0.7334,1.55469-0.95264,2.29248-0.46973C29.93984,12.25958,30.14882,13.28937,29.64736,14.0506z"/>
</svg>
