<?xml version="1.0" encoding="utf-8"?>
<!-- Generator: Adobe Illustrator 17.0.0, SVG Export Plug-In . SVG Version: 6.00 Build 0)  -->
<!DOCTYPE svg PUBLIC "-//W3C//DTD SVG 1.1//EN" "http://www.w3.org/Graphics/SVG/1.1/DTD/svg11.dtd">
<svg version="1.1" id="Слой_1" xmlns="http://www.w3.org/2000/svg" xmlns:xlink="http://www.w3.org/1999/xlink" x="0px" y="0px"
	 width="100px" height="100px" viewBox="0 0 100 100" enable-background="new 0 0 100 100" xml:space="preserve">
<path fill="#9C9C9B" d="M67.02296,67.02374c0.59973-0.59972,0.59973-1.57545,0.00034-2.17484l-14.8489-14.8489l14.84925-14.84924
	c0.59938-0.59938,0.59904-1.57476-0.00035-2.17414c-0.59938-0.59938-1.57476-0.59973-2.17414-0.00035L49.99991,47.82552
	l-14.8489-14.8489c-0.59938-0.59938-1.57476-0.59904-2.17449,0.00069c-0.59938,0.59938-0.59938,1.57442,0,2.1738l14.8489,14.8489
	l-14.8489,14.8489c-0.59938,0.59938-0.59938,1.57511,0,2.17449s1.57511,0.59938,2.17449,0l14.8489-14.8489l14.8489,14.8489
	C65.4482,67.62278,66.42358,67.62313,67.02296,67.02374z"/>
</svg>
