<?xml version="1.0" encoding="utf-8"?>
<!-- Generator: Adobe Illustrator 17.0.0, SVG Export Plug-In . SVG Version: 6.00 Build 0)  -->
<!DOCTYPE svg PUBLIC "-//W3C//DTD SVG 1.1//EN" "http://www.w3.org/Graphics/SVG/1.1/DTD/svg11.dtd">
<svg version="1.1" id="Слой_1" xmlns="http://www.w3.org/2000/svg" xmlns:xlink="http://www.w3.org/1999/xlink" x="0px" y="0px"
	 width="45px" height="45px" viewBox="0 0 45 45" enable-background="new 0 0 45 45" xml:space="preserve">
<g>
	<path fill="#9C9C9B" d="M37.4311,37.38337c-0.35988,0-0.71976-0.12671-1.00882-0.38556L6.56025,10.25347
		C5.94076,9.69892,5.8876,8.74325,6.44804,8.12165c0.55455-0.62689,1.51021-0.67552,2.1297-0.11583l29.86203,26.74435
		c0.61949,0.55531,0.6725,1.51021,0.11206,2.13257C38.25689,37.21604,37.84399,37.38337,37.4311,37.38337z"/>
	<path fill="#9C9C9B" d="M7.56892,37.38337c-0.41289,0-0.82593-0.16733-1.12088-0.50063
		c-0.56044-0.62236-0.50728-1.57727,0.11221-2.13257L36.42228,8.00582c0.61934-0.55968,1.57515-0.51106,2.12955,0.11583
		c0.56044,0.6216,0.50743,1.57727-0.11206,2.13182L8.57774,36.99781C8.28869,37.25666,7.92881,37.38337,7.56892,37.38337z"/>
</g>
</svg>
