<?xml version="1.0" encoding="utf-8"?>
<!-- Generator: Adobe Illustrator 17.0.0, SVG Export Plug-In . SVG Version: 6.00 Build 0)  -->
<!DOCTYPE svg PUBLIC "-//W3C//DTD SVG 1.1//EN" "http://www.w3.org/Graphics/SVG/1.1/DTD/svg11.dtd">
<svg version="1.1" id="Слой_1" xmlns="http://www.w3.org/2000/svg" xmlns:xlink="http://www.w3.org/1999/xlink" x="0px" y="0px"
	 width="45px" height="45px" viewBox="0 0 45 45" enable-background="new 0 0 45 45" xml:space="preserve">
<g>
	<path fill="#FFFFFF" d="M22.49988,27.78628c-2.12549,0-3.85449,1.729-3.85449,3.85449s1.729,3.85449,3.85449,3.85449
		c2.12573,0,3.85474-1.729,3.85474-3.85449S24.62561,27.78628,22.49988,27.78628z"/>
	<path fill="#FFFFFF" d="M39.62376,17.06702c0,0.20544-0.07843,0.41079-0.23522,0.56758c-0.31358,0.31365-0.82159,0.31365-1.13516,0
		c-4.20843-4.20683-9.80297-6.52427-15.7542-6.52427c-5.95195,0-11.54569,2.31744-15.75252,6.52427
		c-0.31357,0.31365-0.82166,0.31365-1.13524,0c-0.31357-0.31357-0.31357-0.82158,0-1.13516
		c4.50948-4.51109,10.50695-6.9947,16.88775-6.9947c6.38008,0,12.37835,2.48362,16.88936,6.9947
		C39.54532,16.65623,39.62376,16.86158,39.62376,17.06702z"/>
	<path fill="#FFFFFF" d="M35.36435,21.32402c0,0.20544-0.07835,0.41087-0.23514,0.56766c-0.31365,0.31357-0.82239,0.31357-1.13524,0
		c-3.06693-3.07006-7.14916-4.76035-11.49479-4.76035c-4.34483,0-8.42618,1.69029-11.49319,4.76035
		c-0.31277,0.31357-0.82158,0.31357-1.13516,0c-0.31357-0.31365-0.31357-0.82166,0-1.13524
		c3.36951-3.37272,7.85474-5.23072,12.62835-5.23072c4.77529,0,9.26044,1.858,12.63003,5.23072
		C35.286,20.91323,35.36435,21.11867,35.36435,21.32402z"/>
	<path fill="#FFFFFF" d="M31.10735,25.5811c0,0.20535-0.07843,0.41079-0.23522,0.56758c-0.31277,0.31357-0.82158,0.31357-1.13516,0
		c-1.9341-1.93169-4.50402-2.99636-7.23779-2.99636c-2.73369,0-5.30361,1.06467-7.23611,2.99636
		c-0.31365,0.31357-0.82166,0.31357-1.13524,0c-0.31357-0.31357-0.31357-0.82158,0-1.13524
		c2.23515-2.23587,5.2088-3.46673,8.37134-3.46673c3.16182,0,6.13547,1.23085,8.37295,3.46673
		C31.02891,25.17031,31.10735,25.37567,31.10735,25.5811z"/>
</g>
</svg>
