<?xml version="1.0" encoding="utf-8"?>
<!-- Generator: Adobe Illustrator 17.0.0, SVG Export Plug-In . SVG Version: 6.00 Build 0)  -->
<!DOCTYPE svg PUBLIC "-//W3C//DTD SVG 1.1//EN" "http://www.w3.org/Graphics/SVG/1.1/DTD/svg11.dtd">
<svg version="1.1" id="Слой_1" xmlns="http://www.w3.org/2000/svg" xmlns:xlink="http://www.w3.org/1999/xlink" x="0px" y="0px"
	 width="45px" height="45px" viewBox="0 0 45 45" enable-background="new 0 0 45 45" xml:space="preserve">
<g>
	<g>
		<g>
			<path fill="#FFFFFF" d="M26.63016,22.73309c-0.21086,0-0.42324-0.07109-0.5982-0.2171l-7.00061-5.83396
				c-0.21318-0.17728-0.33496-0.43963-0.33496-0.71686s0.12178-0.53958,0.33496-0.71606l7.00061-5.83476
				c0.39357-0.32952,0.98314-0.27643,1.31498,0.11866c0.3296,0.39597,0.27643,0.98473-0.11866,1.31506l-6.14085,5.1171
				l6.14085,5.1179c0.39509,0.33032,0.44827,0.91909,0.11866,1.31418C27.16271,22.61826,26.89644,22.73309,26.63016,22.73309z"/>
			<path fill="#FFFFFF" d="M36.51604,28.60367c-0.51688,0-0.93388-0.41772-0.93388-0.93388c0-0.51544,0.417-0.93316,0.93388-0.93316
				c2.56135,0,4.56664-2.16074,4.56664-4.91879c0-2.6198-2.35513-4.91951-5.04137-4.91951H20.55568
				c-0.51616,0-0.93316-0.417-0.93316-0.93316c0-0.51616,0.417-0.93316,0.93316-0.93316h15.48563
				c3.74511,0,6.90841,3.10637,6.90841,6.78583C42.94972,25.62228,40.12378,28.60367,36.51604,28.60367z"/>
		</g>
		<g>
			<path fill="#FFFFFF" d="M17.28842,35.80186c-0.26627,0-0.53255-0.11555-0.71678-0.33576
				c-0.33032-0.39589-0.27723-0.98473,0.11866-1.31506l6.14005-5.1171l-6.14005-5.1179
				c-0.39589-0.33024-0.44899-0.91908-0.11866-1.31418c0.33024-0.39749,0.91908-0.45059,1.31418-0.11866l7.00141,5.83396
				c0.2139,0.1772,0.33576,0.43963,0.33576,0.71678c0,0.27723-0.12186,0.53959-0.33576,0.71606l-7.00141,5.83476
				C17.71094,35.73005,17.50008,35.80186,17.28842,35.80186z"/>
			<path fill="#FFFFFF" d="M24.28903,29.9671H9.00882c-3.64204,0-6.95847-3.33586-6.95847-7.00061
				c0-3.85985,2.86352-7.00133,6.3829-7.00133c0.51616,0,0.93316,0.41772,0.93316,0.93316c0,0.51616-0.417,0.93388-0.93316,0.93388
				c-2.79004,0-4.51578,2.66594-4.51578,5.13429c0,2.68705,2.42613,5.13429,5.09135,5.13429h15.28021
				c0.51616,0,0.93396,0.417,0.93396,0.93316S24.80519,29.9671,24.28903,29.9671z"/>
		</g>
	</g>
</g>
</svg>
