<?xml version="1.0" encoding="utf-8"?>
<!-- Generator: Adobe Illustrator 17.0.0, SVG Export Plug-In . SVG Version: 6.00 Build 0)  -->
<!DOCTYPE svg PUBLIC "-//W3C//DTD SVG 1.1//EN" "http://www.w3.org/Graphics/SVG/1.1/DTD/svg11.dtd">
<svg version="1.1" id="Слой_1" xmlns="http://www.w3.org/2000/svg" xmlns:xlink="http://www.w3.org/1999/xlink" x="0px" y="0px"
	 width="100px" height="100px" viewBox="0 0 100 100" enable-background="new 0 0 100 100" xml:space="preserve">
<path fill="#FFFFFF" d="M70.15222,34.99023h-9.97924v-8.36719c0-0.71973-0.58594-1.30566-1.30591-1.30566H29.84754
	c-0.71997,0-1.30591,0.58594-1.30591,1.30566v37.08057c0,0.72021,0.58594,1.30615,1.30591,1.30615h8.36719v8.36719
	c0,0.71973,0.58594,1.30566,1.30615,1.30566h30.63134c0.72021,0,1.30615-0.58594,1.30615-1.30566V36.29639
	C71.45837,35.57617,70.87244,34.99023,70.15222,34.99023z M40.82679,65.00977h18.04028c0.71997,0,1.30591-0.58594,1.30591-1.30615
	V37.60254h8.67309v34.46777H40.82679V65.00977z M57.56092,27.92969v34.46777H31.15369V27.92969H57.56092z"/>
</svg>
