<?xml version="1.0" encoding="utf-8"?>
<!-- Generator: Adobe Illustrator 17.0.0, SVG Export Plug-In . SVG Version: 6.00 Build 0)  -->
<!DOCTYPE svg PUBLIC "-//W3C//DTD SVG 1.1//EN" "http://www.w3.org/Graphics/SVG/1.1/DTD/svg11.dtd">
<svg version="1.1" id="Слой_1" xmlns="http://www.w3.org/2000/svg" xmlns:xlink="http://www.w3.org/1999/xlink" x="0px" y="0px"
	 width="100px" height="100px" viewBox="0 0 100 100" enable-background="new 0 0 100 100" xml:space="preserve">
<g>
	<path fill="#9C9C9B" d="M70.30433,36.95996h-9.89331c0.00098-0.02002,0.00586-0.03857,0.00586-0.05908v-1.84717
		c0-0.78516-0.61182-1.42383-1.36377-1.42383s-1.36377,0.63867-1.36377,1.42383v1.84717c0,0.02051,0.00488,0.03906,0.00586,0.05908
		H42.32532c-0.75781,0-1.37427,0.6167-1.37427,1.37451v23.93213c-0.0127-0.00049-0.02441-0.00391-0.03711-0.00391h-1.72754
		c-0.75195,0-1.36377,0.63867-1.36377,1.42334c0,0.78516,0.61182,1.42383,1.36377,1.42383h1.72754
		c0.0127,0,0.02441-0.00342,0.03711-0.00391v8.20264c0,0.75781,0.61646,1.37402,1.37427,1.37402h27.97901
		c0.75781,0,1.37451-0.61621,1.37451-1.37402V38.33448C71.67884,37.57666,71.06214,36.95996,70.30433,36.95996z M68.93006,39.70899
		v32.2251H43.69983v-32.2251H68.93006z"/>
	<path fill="#9C9C9B" d="M40.91394,28.16455h1.72754c0.75195,0,1.36377-0.63867,1.36377-1.42383
		c0-0.78467-0.61182-1.42334-1.36377-1.42334h-1.72754c-0.75195,0-1.36377,0.63867-1.36377,1.42334
		C39.55017,27.52588,40.16199,28.16455,40.91394,28.16455z"/>
	<path fill="#9C9C9B" d="M29.68494,38.32422c0.75195,0,1.36377-0.63867,1.36377-1.42334v-1.84717
		c0-0.78516-0.61182-1.42383-1.36377-1.42383s-1.36377,0.63867-1.36377,1.42383v1.84717
		C28.32117,37.68555,28.93299,38.32422,29.68494,38.32422z"/>
	<path fill="#9C9C9B" d="M29.68494,32.78272c0.75195,0,1.36377-0.63867,1.36377-1.42383v-1.84717
		c0-0.78516-0.61182-1.42383-1.36377-1.42383s-1.36377,0.63867-1.36377,1.42383v1.84717
		C28.32117,32.14405,28.93299,32.78272,29.68494,32.78272z"/>
	<path fill="#9C9C9B" d="M56.4618,28.16455h1.72754c0.75195,0,1.36377-0.63867,1.36377-1.42383
		c0-0.78467-0.61182-1.42334-1.36377-1.42334H56.4618c-0.75195,0-1.36377,0.63867-1.36377,1.42334
		C55.09803,27.52588,55.70984,28.16455,56.4618,28.16455z"/>
	<path fill="#9C9C9B" d="M57.68933,29.51172v1.84717c0,0.78516,0.61182,1.42383,1.36377,1.42383s1.36377-0.63867,1.36377-1.42383
		v-1.84717c0-0.78516-0.61182-1.42383-1.36377-1.42383S57.68933,28.72657,57.68933,29.51172z"/>
	<path fill="#9C9C9B" d="M51.27918,28.16455h1.72754c0.75195,0,1.36377-0.63867,1.36377-1.42383
		c0-0.78467-0.61182-1.42334-1.36377-1.42334h-1.72754c-0.75195,0-1.36377,0.63867-1.36377,1.42334
		C49.91541,27.52588,50.52723,28.16455,51.27918,28.16455z"/>
	<path fill="#9C9C9B" d="M46.09656,28.16455h1.72754c0.75195,0,1.36377-0.63867,1.36377-1.42383
		c0-0.78467-0.61182-1.42334-1.36377-1.42334h-1.72754c-0.75195,0-1.36377,0.63867-1.36377,1.42334
		C44.73279,27.52588,45.34461,28.16455,46.09656,28.16455z"/>
	<path fill="#9C9C9B" d="M29.68494,60.4917c0.75195,0,1.36377-0.63867,1.36377-1.42383v-1.84717
		c0-0.78516-0.61182-1.42383-1.36377-1.42383s-1.36377,0.63867-1.36377,1.42383v1.84717
		C28.32117,59.85303,28.93299,60.4917,29.68494,60.4917z"/>
	<path fill="#9C9C9B" d="M35.73133,62.2627h-1.72754c-0.75195,0-1.36377,0.63867-1.36377,1.42334
		c0,0.78516,0.61182,1.42383,1.36377,1.42383h1.72754c0.75195,0,1.36377-0.63867,1.36377-1.42383
		C37.0951,62.90137,36.48328,62.2627,35.73133,62.2627z"/>
	<path fill="#9C9C9B" d="M33.64002,26.74073c0-0.78467-0.61182-1.42334-1.36377-1.42334h-1.72754
		c-0.75195,0-1.36377,0.63867-1.36377,1.42334c0,0.78516,0.61182,1.42383,1.36377,1.42383h1.72754
		C33.0282,28.16455,33.64002,27.52588,33.64002,26.74073z"/>
	<path fill="#9C9C9B" d="M38.82264,26.74073c0-0.78467-0.61182-1.42334-1.36377-1.42334h-1.72754
		c-0.75195,0-1.36377,0.63867-1.36377,1.42334c0,0.78516,0.61182,1.42383,1.36377,1.42383h1.72754
		C38.21082,28.16455,38.82264,27.52588,38.82264,26.74073z"/>
	<path fill="#9C9C9B" d="M29.68494,43.86621c0.75195,0,1.36377-0.63867,1.36377-1.42383v-1.84717
		c0-0.78467-0.61182-1.42334-1.36377-1.42334s-1.36377,0.63867-1.36377,1.42334v1.84717
		C28.32117,43.22754,28.93299,43.86621,29.68494,43.86621z"/>
	<path fill="#9C9C9B" d="M29.68494,49.40821c0.75195,0,1.36377-0.63867,1.36377-1.42383v-1.84717
		c0-0.78516-0.61182-1.42383-1.36377-1.42383s-1.36377,0.63867-1.36377,1.42383v1.84717
		C28.32117,48.76954,28.93299,49.40821,29.68494,49.40821z"/>
	<path fill="#9C9C9B" d="M30.9867,62.33789c-0.17334-0.57813-0.69141-0.99902-1.30176-0.99902
		c-0.75195,0-1.36377,0.63867-1.36377,1.42383v0.92334c0,0.78516,0.61182,1.42383,1.36377,1.42383h0.86377
		c0.75195,0,1.36377-0.63867,1.36377-1.42383C31.91248,63.06104,31.52454,62.52832,30.9867,62.33789z"/>
	<path fill="#9C9C9B" d="M29.68494,54.94971c0.75195,0,1.36377-0.63867,1.36377-1.42334v-1.84766
		c0-0.78467-0.61182-1.42334-1.36377-1.42334s-1.36377,0.63867-1.36377,1.42334v1.84766
		C28.32117,54.31104,28.93299,54.94971,29.68494,54.94971z"/>
</g>
</svg>
