<?xml version="1.0" encoding="utf-8"?>
<!-- Generator: Adobe Illustrator 17.0.0, SVG Export Plug-In . SVG Version: 6.00 Build 0)  -->
<!DOCTYPE svg PUBLIC "-//W3C//DTD SVG 1.1//EN" "http://www.w3.org/Graphics/SVG/1.1/DTD/svg11.dtd">
<svg version="1.1" id="Слой_1" xmlns="http://www.w3.org/2000/svg" xmlns:xlink="http://www.w3.org/1999/xlink" x="0px" y="0px"
	 width="100px" height="100px" viewBox="0 0 100 100" enable-background="new 0 0 100 100" xml:space="preserve">
<path fill-rule="evenodd" clip-rule="evenodd" fill="#9C9C9B" d="M70.99416,35.00309h-1.49958v35.99103
	c0,1.65553-1.34251,2.99991-2.99917,2.99991H33.5046c-1.65591,0-2.99916-1.34438-2.99916-2.99991V35.00309h-1.49996
	c-0.82814,0-1.49921-0.67144-1.49921-1.49853c0-0.82852,0.67106-1.50026,1.49921-1.50026h4.49912h8.99712v-4.49732
	c0-0.82927,0.67181-1.50101,1.49958-1.50101h11.99704c0.82814,0,1.49958,0.67174,1.49958,1.50101v4.49732h8.99749h4.49875
	c0.82814,0,1.49958,0.67174,1.49958,1.50026C72.49374,34.33165,71.8223,35.00309,70.99416,35.00309z M54.49875,29.00581h-8.99749
	v2.99849h8.99749V29.00581z M66.49541,35.00309h-1.49958H35.00418H33.5046v1.49996v1.49921v31.49123
	c0,0.82957,0.67106,1.50063,1.49958,1.50063h29.99165c0.82814,0,1.49958-0.67107,1.49958-1.50063V38.00555v0.00143V35.00309z
	 M57.49791,45.50054h2.99916V63.4962h-2.99916V45.50054z M48.50042,42.50025h2.99916V63.4962h-2.99916V42.50025z M39.50293,45.50054
	h2.99879V63.4962h-2.99879V45.50054z"/>
</svg>
