<?xml version="1.0" encoding="utf-8"?>
<!-- Generator: Adobe Illustrator 17.0.0, SVG Export Plug-In . SVG Version: 6.00 Build 0)  -->
<!DOCTYPE svg PUBLIC "-//W3C//DTD SVG 1.1//EN" "http://www.w3.org/Graphics/SVG/1.1/DTD/svg11.dtd">
<svg version="1.1" id="Слой_1" xmlns="http://www.w3.org/2000/svg" xmlns:xlink="http://www.w3.org/1999/xlink" x="0px" y="0px"
	 width="100px" height="100px" viewBox="0 0 100 100" enable-background="new 0 0 100 100" xml:space="preserve">
<g>
	<path fill="#FFFFFF" d="M66.38454,35.50587c-4.15527-4.67578-10.13379-7.3584-16.40137-7.3584
		c-2.8916,0-5.71338,0.5625-8.3877,1.66992c-0.68555,0.28418-1.01221,1.07324-0.72754,1.75977
		c0.27832,0.66992,1.09863,1.00488,1.7583,0.72754c2.34766-0.97461,4.82422-1.46778,7.36084-1.46778
		c5.49609,0,10.73926,2.35352,14.38477,6.45703c3.40234,3.82715,5.10742,8.74805,4.80078,13.85742
		c-0.30811,5.11133-2.5918,9.79785-6.43066,13.19433c-3.50977,3.10547-8.03076,4.81641-12.73047,4.81641
		c-5.50293,0-10.74512-2.34766-14.38428-6.4414c-3.40186-3.83008-5.10645-8.75391-4.80029-13.86328
		c0.26465-4.38184,2.01758-8.49512,4.97363-11.72852v0.57227c0,0.74219,0.60352,1.3457,1.3457,1.3457
		s1.34619-0.60352,1.34619-1.3457v-3.72949c0-0.74219-0.604-1.34473-1.34619-1.34473h-3.729
		c-0.74219,0-1.34619,0.60254-1.34619,1.34473s0.604,1.3457,1.34619,1.3457h0.39893c-3.37207,3.68652-5.375,8.38477-5.6748,13.37891
		c-0.35156,5.82617,1.59229,11.44141,5.47266,15.81152c4.14941,4.66797,10.12598,7.34473,16.39795,7.34473
		c5.35791,0,10.51172-1.9502,14.5127-5.49219c4.37939-3.87304,6.98438-9.21679,7.33447-15.04882
		C72.20827,45.48536,70.26442,39.87208,66.38454,35.50587z"/>
	<g>
		<path fill="#FFFFFF" d="M49.99992,64.36995c-1.78438,0-3.24985-1.39551-3.36344-3.15223
			c-0.63514-0.19817-1.24985-0.4516-1.83838-0.76044c-1.26581,1.11874-3.38239,1.07212-4.60748-0.15148
			c-0.63656-0.63514-0.9862-1.48292-0.9862-2.38313c0-0.82742,0.2943-1.60822,0.83614-2.22293
			c-0.30877-0.58846-0.56228-1.20324-0.76037-1.83831c-1.75821-0.11366-3.1523-1.57906-3.1523-3.36493
			c0-1.78304,1.39409-3.24844,3.14939-3.3621c0.19958-0.63507,0.45451-1.24977,0.76328-1.83831
			c-0.53893-0.6118-0.83614-1.39551-0.83614-2.22293c0-0.90312,0.34964-1.74799,0.9862-2.38313
			c1.22218-1.2236,3.32123-1.28476,4.60748-0.15148c0.58853-0.30593,1.20324-0.56227,1.83838-0.76328
			c0.11217-1.75679,1.57906-3.14939,3.36344-3.14939c1.78446,0,3.25135,1.3926,3.36352,3.1523
			c0.63514,0.19809,1.24985,0.45443,1.83831,0.76036c1.28774-1.13328,3.38828-1.07212,4.60897,0.15148
			c0.63514,0.63514,0.98471,1.48001,0.98471,2.38022c0.00149,0.82742-0.29423,1.61113-0.83614,2.22584
			c0.30885,0.58853,0.56526,1.20324,0.76335,1.83831c1.75679,0.11657,3.14931,1.57906,3.14931,3.3621
			c0,1.78587-1.39402,3.25127-3.15081,3.36493c-0.19809,0.63507-0.45301,1.24985-0.76037,1.84122
			c0.53901,0.60889,0.83614,1.3926,0.83465,2.22293c0,0.90021-0.34957,1.74508-0.98762,2.38022
			c-1.21778,1.22069-3.31832,1.28192-4.60457,0.15148c-0.58995,0.30885-1.20465,0.56227-1.8398,0.76044
			C53.24986,62.97444,51.78438,64.36995,49.99992,64.36995z M44.61746,58.75591c0.1297,0,0.26223,0.03498,0.38171,0.10486
			c0.80989,0.48359,1.68243,0.84778,2.59286,1.08085c0.36709,0.09323,0.60456,0.44287,0.55646,0.81869
			c-0.01894,0.13111-0.02916,0.18355-0.02916,0.23889c0,1.03423,0.84494,1.8791,1.88059,1.8791
			c1.03573,0,1.8806-0.84487,1.8806-1.8791c0-0.05243-0.01022-0.10196-0.01745-0.15148
			c-0.05392-0.37873,0.17482-0.81287,0.54475-0.9061c0.91043-0.23307,1.78304-0.59726,2.59443-1.08085
			c0.32771-0.19227,0.74724-0.1165,0.97598,0.18645c0.02185,0.02916,0.11508,0.17773,0.13253,0.2098
			c0.68176,0.69623,1.93444,0.70503,2.64387-0.00589c0.35397-0.35538,0.54915-0.82444,0.54915-1.32846
			c0-0.50112-0.19518-0.97308-0.54915-1.32853c-0.03349-0.01745-0.17915-0.10196-0.20831-0.12523
			c-0.29713-0.23016-0.37433-0.64678-0.18064-0.97017c0.48367-0.80698,0.84487-1.68101,1.07652-2.59293
			c0.09323-0.3671,0.44138-0.60889,0.82011-0.55646c0.13403,0.01753,0.18645,0.02916,0.23889,0.02916
			c1.03572,0,1.8791-0.84487,1.8791-1.88201c0-1.09838-0.99485-2.0132-2.06556-1.85875
			c-0.37433,0.04953-0.77931-0.18064-0.87254-0.54773c-0.23166-0.91483-0.59435-1.78587-1.07943-2.59293
			c-0.19227-0.32339-0.1165-0.74001,0.18064-0.97308c0.03207-0.02327,0.18354-0.11941,0.21852-0.13686
			c0.34666-0.34092,0.54184-0.81287,0.54184-1.3169c0-0.50104-0.19518-0.97308-0.54766-1.32555
			c-0.71383-0.71085-1.94906-0.71085-2.65991,0c-0.01752,0.03207-0.09912,0.17482-0.12239,0.20681
			c-0.23016,0.29721-0.64678,0.37582-0.97017,0.18355c-0.80989-0.48359-1.68392-0.84778-2.59875-1.08085
			c-0.3656-0.09613-0.60308-0.44578-0.55348-0.8216c0.01887-0.13104,0.02909-0.18355,0.02909-0.23598
			c0-1.03714-0.84487-1.8791-1.8806-1.8791c-1.03565,0-1.88059,0.84196-1.88059,1.8791c0,0.05541,0.01171,0.10785,0.01752,0.16027
			c0.05385,0.37873-0.17482,0.80117-0.54192,0.8973c-0.91766,0.23598-1.79028,0.59726-2.59576,1.08085
			c-0.32339,0.18937-0.73277,0.11366-0.96584-0.17482c-0.02476-0.032-0.12381-0.18645-0.14417-0.22136
			c-0.68176-0.69921-1.93452-0.70503-2.64245,0.00582c-0.35546,0.35247-0.55064,0.82451-0.55064,1.32846
			c0,0.50112,0.19518,0.97308,0.54915,1.32854c0.03356,0.01745,0.17922,0.09904,0.20831,0.12231
			c0.30012,0.23016,0.3788,0.64968,0.18355,0.97308c-0.48359,0.80706-0.84778,1.6781-1.07794,2.59293
			c-0.09464,0.36419-0.44279,0.60598-0.82011,0.55646c-0.11508-0.01745-0.17624-0.02625-0.24031-0.02625
			c-1.03722,0-1.87918,0.84196-1.87918,1.87627c0,1.09248,0.97889,1.99269,2.03357,1.86456
			c0.38745-0.0437,0.8128,0.17475,0.90602,0.54475c0.23016,0.91192,0.59286,1.78595,1.07652,2.59293
			c0.19376,0.32339,0.11508,0.74292-0.18213,0.97308c-0.03058,0.02327-0.17915,0.1165-0.21264,0.13694
			c-0.34964,0.34084-0.54483,0.8128-0.54483,1.31392c0,0.50112,0.19518,0.97308,0.54915,1.32846
			c0.71092,0.71092,1.94764,0.71092,2.65849,0c0.02036-0.03782,0.10486-0.18355,0.12962-0.21555
			C44.18048,58.85205,44.3961,58.75591,44.61746,58.75591z"/>
		<path fill="#FFFFFF" d="M49.99992,54.52567c-2.22144,0-4.02775-1.80631-4.02775-4.02916
			c0-2.22002,1.80631-4.02633,4.02775-4.02633c2.22144,0,4.02775,1.80631,4.02775,4.02633
			C54.02767,52.71936,52.22136,54.52567,49.99992,54.52567z M49.99992,47.96182c-1.39693,0-2.5361,1.13626-2.5361,2.53468
			c0,1.39842,1.13917,2.53751,2.5361,2.53751c1.39842,0,2.5361-1.1391,2.5361-2.53751
			C52.53603,49.09808,51.39835,47.96182,49.99992,47.96182z"/>
	</g>
</g>
</svg>
