<?xml version="1.0" encoding="utf-8"?>
<!-- Generator: Adobe Illustrator 17.0.0, SVG Export Plug-In . SVG Version: 6.00 Build 0)  -->
<!DOCTYPE svg PUBLIC "-//W3C//DTD SVG 1.1//EN" "http://www.w3.org/Graphics/SVG/1.1/DTD/svg11.dtd">
<svg version="1.1" id="Слой_1" xmlns="http://www.w3.org/2000/svg" xmlns:xlink="http://www.w3.org/1999/xlink" x="0px" y="0px"
	 width="45px" height="45px" viewBox="0 0 45 45" enable-background="new 0 0 45 45" xml:space="preserve">
<g>
	<path fill="#FFFFFF" d="M20.28516,23.56641h-8.17578v6.125h9.55664v2.76172H8.65039V12.54688h12.91992v2.78906h-9.46094v5.49609
		h8.17578V23.56641z"/>
	<path fill="#FFFFFF" d="M27.24414,17.66016l0.0957,1.70898c0.51953-0.62891,1.14355-1.11621,1.87305-1.46289
		c0.729-0.34619,1.54004-0.51953,2.43359-0.51953c0.71094,0,1.35547,0.09814,1.93457,0.29395
		c0.57861,0.19629,1.07324,0.5127,1.4834,0.9502s0.72656,1.00732,0.9502,1.70898c0.22314,0.70215,0.33496,1.5542,0.33496,2.55664
		v9.55664h-3.32227v-9.58398c0-0.51025-0.05713-0.94092-0.1709-1.29199c-0.11426-0.35059-0.28027-0.63574-0.49902-0.85449
		s-0.49023-0.37598-0.81348-0.47168c-0.32373-0.0957-0.69531-0.14355-1.11426-0.14355c-0.68359,0-1.27832,0.16406-1.78418,0.49219
		s-0.90918,0.77051-1.20996,1.32617v10.52734h-3.32227V17.66016H27.24414z"/>
</g>
</svg>
