<?xml version="1.0" encoding="utf-8"?>
<!-- Generator: Adobe Illustrator 17.0.0, SVG Export Plug-In . SVG Version: 6.00 Build 0)  -->
<!DOCTYPE svg PUBLIC "-//W3C//DTD SVG 1.1//EN" "http://www.w3.org/Graphics/SVG/1.1/DTD/svg11.dtd">
<svg version="1.1" id="Слой_1" xmlns="http://www.w3.org/2000/svg" xmlns:xlink="http://www.w3.org/1999/xlink" x="0px" y="0px"
	 width="45px" height="45px" viewBox="0 0 45 45" enable-background="new 0 0 45 45" xml:space="preserve">
<g>
	<g>
		<path fill="#FFFFFF" d="M15.15133,24.64648h-3.85547v7.66992H7.83688V12.41016h7c1.13916,0,2.15527,0.12988,3.04883,0.38965
			c0.89307,0.25977,1.64746,0.64258,2.2627,1.14844s1.08203,1.13281,1.40137,1.87988
			c0.31885,0.74756,0.47852,1.61328,0.47852,2.59766c0,1.33105-0.32129,2.44531-0.96387,3.34277
			c-0.64258,0.89795-1.53809,1.58838-2.68652,2.07129l4.4707,8.29883v0.17773h-3.70508L15.15133,24.64648z M11.29586,21.87109
			h3.55469c0.61963,0,1.16211-0.08203,1.62695-0.24609s0.85205-0.3916,1.16211-0.68359
			c0.30957-0.2915,0.54199-0.6377,0.69727-1.03906c0.15479-0.40088,0.23242-0.84277,0.23242-1.32617
			c0-0.51025-0.07324-0.97266-0.21875-1.3877c-0.146-0.41455-0.36914-0.77002-0.66992-1.06641
			c-0.30078-0.2959-0.68604-0.52393-1.15527-0.68359c-0.46973-0.15918-1.03223-0.23926-1.68848-0.23926h-3.54102V21.87109z"/>
		<path fill="#FFFFFF" d="M33.95016,30.86719c-0.46484,0.54688-1.03906,0.9707-1.72266,1.27148s-1.49512,0.45117-2.43359,0.45117
			c-0.72949,0-1.39258-0.10254-1.98926-0.30762c-0.59717-0.20508-1.10986-0.52832-1.53809-0.9707
			c-0.42871-0.44189-0.76123-1.01172-0.99805-1.70898c-0.2373-0.69727-0.35547-1.5332-0.35547-2.50879v-9.57031h3.32227v9.59766
			c0,0.53809,0.06348,0.98242,0.19141,1.33301c0.12744,0.35107,0.29834,0.63379,0.5127,0.84766
			c0.21387,0.21436,0.4624,0.36475,0.74512,0.45117c0.28223,0.08691,0.57861,0.12988,0.88867,0.12988
			c0.85645,0,1.54932-0.15479,2.07813-0.46484c0.52832-0.30957,0.9248-0.7334,1.18945-1.27148V17.52344h3.32227v14.79297h-3.13086
			L33.95016,30.86719z"/>
	</g>
</g>
</svg>
