<?xml version="1.0" encoding="utf-8"?>
<!-- Generator: Adobe Illustrator 17.0.0, SVG Export Plug-In . SVG Version: 6.00 Build 0)  -->
<!DOCTYPE svg PUBLIC "-//W3C//DTD SVG 1.1//EN" "http://www.w3.org/Graphics/SVG/1.1/DTD/svg11.dtd">
<svg version="1.1" id="Слой_1" xmlns="http://www.w3.org/2000/svg" xmlns:xlink="http://www.w3.org/1999/xlink" x="0px" y="0px"
	 width="55px" height="55px" viewBox="0 0 55 55" enable-background="new 0 0 55 55" xml:space="preserve">
<g>
	<g>
		<path fill="#FFFFFF" d="M27.50327,34.28061c-6.96152,0-12.6125-10.91916-12.6125-18.04259
			c0-6.95657,5.65919-12.61409,12.6125-12.61409s12.61082,5.65752,12.61082,12.61409
			C40.11409,23.36145,34.4647,34.28061,27.50327,34.28061z M27.50327,5.29926c-6.03053,0-10.93717,4.90496-10.93717,10.93876
			c0,6.16472,5.11278,16.36726,10.93717,16.36726s10.93549-10.20253,10.93549-16.36726
			C38.43876,10.20422,33.5338,5.29926,27.50327,5.29926z"/>
		<path fill="#FFFFFF" d="M33.43562,51.3742c-0.92931,0-1.88475-0.00653-2.86968-0.01307c-1.99926-0.01307-4.1261-0.01307-6.12544,0
			c-7.85313,0.05889-14.05052,0.09164-17.11161-2.95152C6.092,47.1826,5.46542,45.49747,5.46542,43.4033
			c0-5.49066,7.36395-9.796,14.59368-14.94304l0.97186,1.36448C14.45067,34.5104,7.14076,38.30526,7.14076,43.4033
			c0,1.65565,0.44824,2.90561,1.36774,3.81859c2.56703,2.54893,8.74809,2.51954,15.92061,2.46391
			c2.00739-0.01307,4.14084-0.01307,6.14998,0c7.16264,0.05235,13.34705,0.08502,15.91241-2.46391
			c0.91942-0.91298,1.36774-2.16294,1.36774-3.81859c0-5.09804-7.81877-8.68023-14.39738-13.36588l0.97178-1.36448
			c7.22815,5.14704,15.10094,9.2397,15.10094,14.73036c0,2.09417-0.62666,3.7793-1.86347,5.00967
			C44.99442,51.06988,39.91774,51.3742,33.43562,51.3742z"/>
	</g>
</g>
</svg>
