<?xml version="1.0" encoding="utf-8"?>
<!-- Generator: Adobe Illustrator 17.0.0, SVG Export Plug-In . SVG Version: 6.00 Build 0)  -->
<!DOCTYPE svg PUBLIC "-//W3C//DTD SVG 1.1//EN" "http://www.w3.org/Graphics/SVG/1.1/DTD/svg11.dtd">
<svg version="1.1" id="Слой_1" xmlns="http://www.w3.org/2000/svg" xmlns:xlink="http://www.w3.org/1999/xlink" x="0px" y="0px"
	 width="45px" height="45px" viewBox="0 0 45 45" enable-background="new 0 0 45 45" xml:space="preserve">
<g>
	<g>
		<path fill="#FFFFFF" d="M14.25071,24.63112c0.53278,0,0.96296-0.32758,0.96296-0.73073c0-0.79429,0.42993-1.13162,1.44419-1.13162
			h13.27496c0.52777,0,0.95795-0.32733,0.95795-0.73073c0-0.40065-0.43018-0.72822-0.95795-0.72822H16.65786
			c-2.07732,0-3.3651,0.99224-3.3651,2.59058C13.29276,24.30354,13.72043,24.63112,14.25071,24.63112z"/>
		<path fill="#FFFFFF" d="M27.82622,26.83531c0.21997,0,0.43268-0.09284,0.57682-0.27602l3.14763-3.98347
			c0.21021-0.26877,0.20771-0.64514,0-0.90915l-3.14763-3.98096c-0.24925-0.31782-0.7087-0.37162-1.02902-0.12212
			c-0.31506,0.2515-0.37137,0.71346-0.11962,1.02877l2.78852,3.52651l-2.78852,3.53126
			c-0.25175,0.31782-0.19545,0.77702,0.11962,1.03127C27.50865,26.78401,27.66981,26.83531,27.82622,26.83531z"/>
	</g>
	<path fill="#FFFFFF" d="M25.56822,14.37191v-2.63212c0-2.3143-1.31481-4.70693-3.51925-4.70693h-7.74446
		c-0.37387,0-0.67442,0.3008-0.67442,0.67217c0,0.37387,0.30055,0.67217,0.67442,0.67217h7.74446
		c1.48097,0,2.17517,2.00875,2.17517,3.3626v2.63212"/>
	<path fill="#FFFFFF" d="M24.22413,30.30076v3.29428c0,1.50299-0.748,3.02802-2.17517,3.02802h-7.92288
		c0,0-0.49599,0.0488-0.49599,0.65966c0,0.6061,0.49599,0.68443,0.49599,0.68443h7.92288c2.3118,0,3.51925-2.19719,3.51925-4.3721
		v-3.33081"/>
</g>
</svg>
