<?xml version="1.0" encoding="utf-8"?>
<!-- Generator: Adobe Illustrator 17.0.0, SVG Export Plug-In . SVG Version: 6.00 Build 0)  -->
<!DOCTYPE svg PUBLIC "-//W3C//DTD SVG 1.1//EN" "http://www.w3.org/Graphics/SVG/1.1/DTD/svg11.dtd">
<svg version="1.1" id="Слой_1" xmlns="http://www.w3.org/2000/svg" xmlns:xlink="http://www.w3.org/1999/xlink" x="0px" y="0px"
	 width="63.41677px" height="63.41677px" viewBox="0 0 63.41677 63.41677" enable-background="new 0 0 63.41677 63.41677"
	 xml:space="preserve">
<path fill="#F2F2F2" d="M56.42705,32.38807c0.01758-0.29395,0.03131-0.59278,0.03131-0.87305
	c0-11.5957-9.41992-21.0293-20.99811-21.0293c-9.32031,0-17.4668,6.11719-20.10352,14.97851
	C7.95836,25.52186,1.95836,31.65956,1.95836,39.19667c0,7.57324,6.05658,13.73438,13.50189,13.73438h35
	c5.961,0,10.99811-5.14648,10.99811-11.23828C61.45836,37.92616,59.54625,34.41835,56.42705,32.38807z M38.25274,38.94984
	c0.49872,0.49878,0.49872,1.30664,0,1.80542c-0.24933,0.24951-0.57605,0.37402-0.90265,0.37402
	c-0.32666,0-0.65326-0.12451-0.90271-0.37402l-4.73902-4.74121l-4.73901,4.74121c-0.24939,0.24951-0.57605,0.37402-0.90265,0.37402
	c-0.32672,0-0.65332-0.12451-0.90265-0.37402c-0.49878-0.49878-0.49878-1.30664,0-1.80542l4.73938-4.74146l-4.73938-4.74146
	c-0.49878-0.49878-0.49878-1.30688,0-1.80542c0.49872-0.49878,1.30658-0.49878,1.8053,0l4.73901,4.74121l4.73902-4.74121
	c0.49878-0.49878,1.3067-0.49878,1.80536,0c0.49872,0.49854,0.49872,1.30664,0,1.80542l-4.73938,4.74146L38.25274,38.94984z"/>
</svg>
