<?xml version="1.0" encoding="utf-8"?>
<!-- Generator: Adobe Illustrator 17.0.0, SVG Export Plug-In . SVG Version: 6.00 Build 0)  -->
<!DOCTYPE svg PUBLIC "-//W3C//DTD SVG 1.1//EN" "http://www.w3.org/Graphics/SVG/1.1/DTD/svg11.dtd">
<svg version="1.1" id="Слой_1" xmlns="http://www.w3.org/2000/svg" xmlns:xlink="http://www.w3.org/1999/xlink" x="0px" y="0px"
	 width="100px" height="100px" viewBox="0 0 100 100" enable-background="new 0 0 100 100" xml:space="preserve">
<path fill="#FFFFFF" d="M25.40787,55.29884l17.44238,17.44189c0.30762,0.30762,0.71924,0.47705,1.15967,0.47705h0.00049
	c0.04785,0,0.09668-0.00195,0.14551-0.00635c0.48486-0.04541,0.9209-0.30273,1.19531-0.70508l29.43604-43.18994
	c0.24463-0.35938,0.33496-0.79346,0.25391-1.22217c-0.08154-0.42822-0.32373-0.79932-0.68311-1.04443
	c-0.25781-0.1748-0.56689-0.26758-0.89453-0.26758c-0.55273,0-1.07861,0.26709-1.37207,0.69727L43.76481,69.04249l-0.08545-0.08545
	L27.71451,52.9922c-0.30859-0.30811-0.71777-0.47754-1.15332-0.47754s-0.84473,0.16943-1.15332,0.47754
	s-0.47803,0.71777-0.47803,1.15332S25.09928,54.99073,25.40787,55.29884z"/>
</svg>
