<?xml version="1.0" encoding="utf-8"?>
<!-- Generator: Adobe Illustrator 17.0.0, SVG Export Plug-In . SVG Version: 6.00 Build 0)  -->
<!DOCTYPE svg PUBLIC "-//W3C//DTD SVG 1.1//EN" "http://www.w3.org/Graphics/SVG/1.1/DTD/svg11.dtd">
<svg version="1.1" id="Слой_1" xmlns="http://www.w3.org/2000/svg" xmlns:xlink="http://www.w3.org/1999/xlink" x="0px" y="0px"
	 width="55px" height="55px" viewBox="0 0 55 55" enable-background="new 0 0 55 55" xml:space="preserve">
<g>
	<path fill="#FFFFFF" d="M35.92249,52.63001H19.16915c-5.47432,0-10.09782-4.89181-10.09782-10.68026V26.66233
		c0-0.46465,0.37301-0.83767,0.83767-0.83767H45.091c0.46139,0,0.83767,0.37301,0.83767,0.83767v15.28742
		C45.92867,47.83964,41.43928,52.63001,35.92249,52.63001z M10.74666,27.5v14.44975c0,4.87874,3.8562,9.00492,8.42249,9.00492
		h16.75334c4.59243,0,8.33085-4.04107,8.33085-9.00492V27.5H10.74666z"/>
	<path fill="#FFFFFF" d="M43.41567,26.66233c-0.46465,0-0.83767-0.37628-0.83767-0.83767v-9.00492
		c0-7.28376-6.01419-12.77442-13.9851-12.77442h-2.09417c-8.02653,0-14.07674,5.49066-14.07674,12.77442v9.00492
		c0,0.46139-0.37628,0.83767-0.83767,0.83767c-0.46465,0-0.83767-0.37628-0.83767-0.83767v-9.00492
		c0-8.23921,6.77002-14.44975,15.75208-14.44975h2.09417c8.92635,0,15.66043,6.21055,15.66043,14.44975v9.00492
		C44.25334,26.28605,43.87706,26.66233,43.41567,26.66233z"/>
	<path fill="#FFFFFF" d="M27.98099,45.92867h-1.67533c-1.31045,0-2.15632-0.9882-2.15632-2.513v-3.70408
		c-1.80953-1.07975-1.80953-2.78457-1.80953-3.83492c0-2.82059,2.14987-5.026,4.89189-5.026c2.82059,0,5.11597,2.2545,5.11597,5.026
		c0,1.03728-0.58411,1.90117-1.05194,2.59811c-0.16695,0.2487-0.42218,0.62498-0.44832,0.75909l0.00327,4.1818
		C30.85067,44.85219,29.33566,45.92867,27.98099,45.92867z M27.2317,32.526c-1.80299,0-3.21656,1.47245-3.21656,3.35067
		c0,1.38742,0.18328,2.04834,1.31874,2.56862c0.29771,0.13746,0.49079,0.43525,0.49079,0.76245v4.20794
		c0,0.83767,0.35014,0.83767,0.48099,0.83767h1.67533c0.53661,0,1.19435-0.46139,1.19435-0.83767v-4.20794
		c0-0.5857,0.35341-1.11251,0.72969-1.6688c0.35995-0.53334,0.7673-1.13873,0.7673-1.66227
		C30.67233,34.06069,29.09684,32.526,27.2317,32.526z"/>
</g>
</svg>
