<?xml version="1.0" encoding="utf-8"?>
<!-- Generator: Adobe Illustrator 17.0.0, SVG Export Plug-In . SVG Version: 6.00 Build 0)  -->
<!DOCTYPE svg PUBLIC "-//W3C//DTD SVG 1.1//EN" "http://www.w3.org/Graphics/SVG/1.1/DTD/svg11.dtd">
<svg version="1.1" id="Слой_1" xmlns="http://www.w3.org/2000/svg" xmlns:xlink="http://www.w3.org/1999/xlink" x="0px" y="0px"
	 width="55px" height="55px" viewBox="0 0 55 55" enable-background="new 0 0 55 55" xml:space="preserve">
<g>
	<path fill="#FFFFFF" d="M42.36217,29.92818c-0.17313,0-0.3423-0.08706-0.43941-0.24561
		c-3.1148-5.06579-8.50629-8.08997-14.42328-8.08997c-5.91595,0-11.30745,3.02419-14.4222,8.08997
		c-0.14953,0.24262-0.46766,0.31761-0.70873,0.16912c-0.24262-0.14901-0.31864-0.46663-0.16917-0.70873
		c3.30304-5.37335,9.02323-8.58124,15.30009-8.58124c6.2779,0,11.99809,3.20789,15.30112,8.58124
		c0.14948,0.2421,0.0735,0.55972-0.16912,0.70873C42.54742,29.90355,42.45428,29.92818,42.36217,29.92818z"/>
	<path fill="#FFFFFF" d="M27.49948,34.43827c-5.75287,0-10.33291-4.11496-12.70073-7.96611
		c-0.14948-0.24215-0.0735-0.55977,0.16912-0.70873c0.24061-0.14953,0.55925-0.0735,0.70873,0.16912
		c2.22185,3.61359,6.49484,7.47485,11.82289,7.47485s9.60109-3.86126,11.82289-7.47485
		c0.1485-0.24262,0.46663-0.31864,0.70873-0.16912c0.24262,0.14896,0.31865,0.46658,0.16917,0.70873
		C37.83244,30.32332,33.2524,34.43827,27.49948,34.43827z"/>
	<path fill="#FFFFFF" d="M27.49948,31.91546c-2.42767,0-4.40237-1.97465-4.40237-4.40134c0-2.42772,1.9747-4.40242,4.40237-4.40242
		c2.42772,0,4.40237,1.9747,4.40237,4.40242C31.90184,29.94081,29.9272,31.91546,27.49948,31.91546z M27.49948,24.14258
		c-1.85888,0-3.37149,1.51261-3.37149,3.37154c0,1.85837,1.51261,3.37046,3.37149,3.37046
		c1.85893,0,3.37149-1.51209,3.37149-3.37046C30.87097,25.65519,29.35841,24.14258,27.49948,24.14258z"/>
</g>
</svg>
