<?xml version="1.0" encoding="utf-8"?>
<!-- Generator: Adobe Illustrator 17.0.0, SVG Export Plug-In . SVG Version: 6.00 Build 0)  -->
<!DOCTYPE svg PUBLIC "-//W3C//DTD SVG 1.1//EN" "http://www.w3.org/Graphics/SVG/1.1/DTD/svg11.dtd">
<svg version="1.1" id="Слой_1" xmlns="http://www.w3.org/2000/svg" xmlns:xlink="http://www.w3.org/1999/xlink" x="0px" y="0px"
	 width="55px" height="55px" viewBox="0 0 55 55" enable-background="new 0 0 55 55" xml:space="preserve">
<g>
	<path fill="#FFFFFF" d="M13.347,19.663c0.168,0,0.332,0.084,0.426,0.238c3.018,4.908,8.241,7.837,13.973,7.837
		c5.731,0,10.955-2.93,13.972-7.837c0.145-0.235,0.453-0.308,0.687-0.164c0.235,0.144,0.309,0.452,0.164,0.687
		c-3.2,5.206-8.742,8.313-14.823,8.313c-6.082,0-11.624-3.108-14.824-8.313c-0.145-0.235-0.071-0.542,0.164-0.687
		C13.167,19.687,13.257,19.663,13.347,19.663z"/>
	<g>
		<line fill="none" x1="43.517" y1="28.37" x2="39.656" y2="23.312"/>
		<path fill="#FFFFFF" d="M39.656,22.77c0.163,0,0.324,0.073,0.43,0.213l3.862,5.058c0.182,0.238,0.138,0.578-0.102,0.76
			c-0.237,0.181-0.578,0.138-0.758-0.102l-3.862-5.058c-0.182-0.238-0.138-0.578,0.102-0.76
			C39.425,22.806,39.541,22.77,39.656,22.77z"/>
	</g>
	<g>
		<line fill="none" x1="39.712" y1="31.453" x2="36.397" y2="26.021"/>
		<path fill="#FFFFFF" d="M36.397,25.479c0.182,0,0.36,0.092,0.464,0.259l3.315,5.432c0.155,0.256,0.074,0.59-0.182,0.745
			c-0.252,0.155-0.589,0.076-0.745-0.18l-3.315-5.432c-0.155-0.256-0.074-0.59,0.182-0.745C36.203,25.504,36.3,25.479,36.397,25.479
			z"/>
	</g>
	<g>
		<line fill="none" x1="34.821" y1="33.612" x2="32.185" y2="27.82"/>
		<path fill="#FFFFFF" d="M32.184,27.277c0.205,0,0.402,0.118,0.493,0.318l2.636,5.793c0.125,0.272,0.004,0.594-0.269,0.718
			c-0.265,0.123-0.593,0.006-0.718-0.269l-2.636-5.793c-0.125-0.272-0.004-0.594,0.269-0.718
			C32.032,27.293,32.108,27.277,32.184,27.277z"/>
	</g>
	<g>
		<line fill="none" x1="11.484" y1="28.202" x2="15.751" y2="23.48"/>
		<path fill="#FFFFFF" d="M15.75,22.938c0.129,0,0.26,0.047,0.364,0.14c0.222,0.201,0.239,0.543,0.038,0.765l-4.266,4.721
			c-0.203,0.221-0.546,0.238-0.766,0.039c-0.222-0.201-0.239-0.543-0.038-0.765l4.266-4.721
			C15.455,22.999,15.602,22.938,15.75,22.938z"/>
	</g>
	<g>
		<line fill="none" x1="15.554" y1="31.491" x2="18.744" y2="25.984"/>
		<path fill="#FFFFFF" d="M18.743,25.442c0.093,0,0.186,0.023,0.271,0.073c0.26,0.15,0.347,0.482,0.199,0.741l-3.188,5.506
			c-0.15,0.259-0.487,0.346-0.741,0.197c-0.26-0.15-0.347-0.482-0.199-0.741l3.188-5.506C18.375,25.539,18.557,25.442,18.743,25.442
			z"/>
	</g>
	<g>
		<line fill="none" x1="20.383" y1="33.612" x2="23.019" y2="27.82"/>
		<path fill="#FFFFFF" d="M23.02,27.277c0.076,0,0.152,0.016,0.224,0.049c0.273,0.124,0.394,0.446,0.269,0.718l-2.636,5.793
			c-0.125,0.273-0.453,0.39-0.718,0.269c-0.273-0.124-0.394-0.446-0.269-0.718l2.636-5.793
			C22.617,27.395,22.814,27.277,23.02,27.277z"/>
	</g>
	<g>
		<line fill="none" x1="27.6" y1="28.472" x2="27.6" y2="34.795"/>
		<path fill="#FFFFFF" d="M27.601,27.93c0.299,0,0.542,0.242,0.542,0.542v6.323c0,0.3-0.243,0.542-0.542,0.542
			s-0.542-0.242-0.542-0.542v-6.323C27.059,28.173,27.303,27.93,27.601,27.93z"/>
	</g>
</g>
</svg>
