<?xml version="1.0" encoding="utf-8"?>
<!-- Generator: Adobe Illustrator 17.0.0, SVG Export Plug-In . SVG Version: 6.00 Build 0)  -->
<!DOCTYPE svg PUBLIC "-//W3C//DTD SVG 1.1//EN" "http://www.w3.org/Graphics/SVG/1.1/DTD/svg11.dtd">
<svg version="1.1" id="Слой_1" xmlns="http://www.w3.org/2000/svg" xmlns:xlink="http://www.w3.org/1999/xlink" x="0px" y="0px"
	 width="45px" height="45px" viewBox="0 0 45 45" enable-background="new 0 0 45 45" xml:space="preserve">
<g>
	<path fill="#FFFFFF" d="M20.42774,21.28206H4.27541c-0.49776,0-0.89735-0.4013-0.89735-0.89735V4.23238
		c0-0.49597,0.39959-0.89735,0.89735-0.89735h16.15233c0.49426,0,0.89735,0.40139,0.89735,0.89735v16.15233
		C21.32509,20.88077,20.922,21.28206,20.42774,21.28206z M5.17276,19.48736h14.35763V5.12973H5.17276V19.48736z"/>
	<path fill="#FFFFFF" d="M15.04367,8.71908H9.65951c-0.49774,0-0.89734,0.40137-0.89734,0.89746v5.38403
		c0,0.49609,0.3996,0.89746,0.89734,0.89746h5.38416c0.49426,0,0.89734-0.40137,0.89734-0.89746V9.61654
		C15.94101,9.12045,15.53793,8.71908,15.04367,8.71908z"/>
	<path fill="#FFFFFF" d="M40.72467,21.28206H24.57234c-0.49776,0-0.89735-0.4013-0.89735-0.89735V4.23238
		c0-0.49597,0.39959-0.89735,0.89735-0.89735h16.15233c0.49426,0,0.89735,0.40139,0.89735,0.89735v16.15233
		C41.62202,20.88077,41.21893,21.28206,40.72467,21.28206z M25.46969,19.48736h14.35763V5.12973H25.46969V19.48736z"/>
	<path fill="#FFFFFF" d="M35.34054,8.71908h-5.38409c-0.49774,0-0.89734,0.40137-0.89734,0.89746v5.38403
		c0,0.49609,0.3996,0.89746,0.89734,0.89746h5.38409c0.49426,0,0.8974-0.40137,0.8974-0.89746V9.61654
		C36.23794,9.12045,35.8348,8.71908,35.34054,8.71908z"/>
	<path fill="#FFFFFF" d="M20.42774,41.66497H4.27541c-0.49776,0-0.89735-0.40129-0.89735-0.89735V24.61529
		c0-0.49597,0.39959-0.89735,0.89735-0.89735h16.15233c0.49426,0,0.89735,0.40139,0.89735,0.89735v16.15233
		C21.32509,41.26368,20.922,41.66497,20.42774,41.66497z M5.17276,39.87027h14.35763V25.51264H5.17276V39.87027z"/>
	<path fill="#FFFFFF" d="M15.04367,29.10214H9.65951c-0.49774,0-0.89734,0.40137-0.89734,0.89722v5.38403
		c0,0.49609,0.3996,0.89746,0.89734,0.89746h5.38416c0.49426,0,0.89734-0.40137,0.89734-0.89746v-5.38403
		C15.94101,29.5035,15.53793,29.10214,15.04367,29.10214z"/>
	<path fill="#FFFFFF" d="M29.95645,23.71794h-5.38412c-0.49773,0-0.89734,0.40138-0.89734,0.89728v5.38412
		c0,0.49612,0.3996,0.89728,0.89734,0.89728h5.38412c0.49429,0,0.89739-0.40116,0.89739-0.89728v-5.38412
		C30.85384,24.11932,30.45074,23.71794,29.95645,23.71794z"/>
	<path fill="#FFFFFF" d="M29.95645,34.48629h-5.38412c-0.49773,0-0.89734,0.40138-0.89734,0.89728v5.38412
		c0,0.49612,0.3996,0.89728,0.89734,0.89728h5.38412c0.49429,0,0.89739-0.40116,0.89739-0.89728v-5.38412
		C30.85384,34.88767,30.45074,34.48629,29.95645,34.48629z"/>
	<path fill="#FFFFFF" d="M40.72463,23.71794H35.3405c-0.49773,0-0.89734,0.40138-0.89734,0.89728v5.38412
		c0,0.49612,0.3996,0.89728,0.89734,0.89728h5.38412c0.49429,0,0.89739-0.40116,0.89739-0.89728v-5.38412
		C41.62202,24.11932,41.21892,23.71794,40.72463,23.71794z"/>
	<path fill="#FFFFFF" d="M40.72463,34.48629H35.3405c-0.49773,0-0.89734,0.40138-0.89734,0.89728v5.38412
		c0,0.49612,0.3996,0.89728,0.89734,0.89728h5.38412c0.49429,0,0.89739-0.40116,0.89739-0.89728v-5.38412
		C41.62202,34.88767,41.21892,34.48629,40.72463,34.48629z"/>
</g>
</svg>
