<?xml version="1.0" encoding="utf-8"?>
<!-- Generator: Adobe Illustrator 17.0.0, SVG Export Plug-In . SVG Version: 6.00 Build 0)  -->
<!DOCTYPE svg PUBLIC "-//W3C//DTD SVG 1.1//EN" "http://www.w3.org/Graphics/SVG/1.1/DTD/svg11.dtd">
<svg version="1.1" id="Слой_1" xmlns="http://www.w3.org/2000/svg" xmlns:xlink="http://www.w3.org/1999/xlink" x="0px" y="0px"
	 width="100px" height="100px" viewBox="0 0 100 100" enable-background="new 0 0 100 100" xml:space="preserve">
<path fill="#9C9C9B" d="M79.02759,50.68921c0.01709-0.30957,0.02979-0.62061,0.02979-0.91455
	c0-13.63037-11.07227-24.71973-24.68262-24.71973c-10.95215,0-20.41357,7.0127-23.58936,17.46631
	c-8.65576,0.14893-15.67285,7.38916-15.67285,16.20996c0,8.94043,7.15186,16.21387,15.94287,16.21387h40.80859
	c7.05957,0,13.02344-6.09229,13.02344-13.30371C84.88745,57.21021,82.69897,53.12476,79.02759,50.68921z M71.86401,72.21265
	h-17.4585V59.56299h3.73291l-6.23291-10.79346L45.6731,59.56299h3.73242v12.64966h-18.3501
	c-7.16113,0-13.21094-6.17383-13.21094-13.48145c0-7.41748,6.00391-13.45215,13.38379-13.45215l0.02051-0.00293
	c0.16016,0.02637,0.32275,0.04883,0.48438,0.05566c0.64844,0.04248,1.22754-0.39111,1.39014-1.02783
	c2.47119-9.7251,11.20947-16.5166,21.25146-16.5166c12.10352,0,21.95117,9.86328,21.95117,21.9873
	c0,0.44482-0.03467,0.9375-0.0708,1.45898l-0.00635,0.09131c-0.03516,0.52832,0.22754,1.01855,0.68555,1.27979
	c3.2207,1.84131,5.22119,5.3042,5.22119,9.03662C82.15552,67.37183,77.44263,72.21265,71.86401,72.21265z"/>
</svg>
