<?xml version="1.0" encoding="utf-8"?>
<!-- Generator: Adobe Illustrator 17.0.0, SVG Export Plug-In . SVG Version: 6.00 Build 0)  -->
<!DOCTYPE svg PUBLIC "-//W3C//DTD SVG 1.1//EN" "http://www.w3.org/Graphics/SVG/1.1/DTD/svg11.dtd">
<svg version="1.1" id="Слой_1" xmlns="http://www.w3.org/2000/svg" xmlns:xlink="http://www.w3.org/1999/xlink" x="0px" y="0px"
	 width="100px" height="100px" viewBox="0 0 100 100" enable-background="new 0 0 100 100" xml:space="preserve">
<g>
	<g>
		<path fill="#FFFFFF" d="M42.39783,56.10254c-0.16943,0.20215-0.40039,0.41846-0.69336,0.64941
			c-0.29297,0.23145-0.66089,0.44629-1.10352,0.64453c-0.44287,0.19873-0.96533,0.36475-1.56738,0.49805
			c-0.60229,0.1333-1.29395,0.2002-2.0752,0.2002c-0.91797,0-1.75635-0.15137-2.51465-0.4541
			c-0.75854-0.30273-1.40796-0.74707-1.94824-1.33301c-0.54053-0.58594-0.95874-1.30518-1.25488-2.1582
			c-0.29639-0.85254-0.44434-1.8291-0.44434-2.92969v-0.83984c0-1.1001,0.1416-2.07813,0.4248-2.93457
			c0.2832-0.85596,0.68359-1.57715,1.20117-2.16309s1.14404-1.03174,1.87988-1.33789
			c0.7356-0.30566,1.55273-0.45898,2.45117-0.45898c0.92432,0,1.72363,0.11572,2.39746,0.34668
			c0.67383,0.23145,1.23682,0.55518,1.68945,0.97168c0.45239,0.41699,0.80566,0.91504,1.05957,1.49414
			c0.25391,0.57959,0.41992,1.21436,0.49805,1.9043h-2.85156c-0.05859-0.35791-0.1499-0.68164-0.27344-0.97168
			c-0.12378-0.28955-0.29297-0.53711-0.50781-0.74219s-0.48022-0.36279-0.7959-0.47363
			c-0.31592-0.11035-0.69189-0.16602-1.12793-0.16602c-1.00269,0-1.7644,0.37939-2.28516,1.1377
			c-0.521,0.75879-0.78125,1.8833-0.78125,3.37402v0.85938c0,1.49121,0.2832,2.61719,0.84961,3.37891
			s1.39648,1.14258,2.49023,1.14258c0.35156,0,0.65747-0.02246,0.91797-0.06836c0.26025-0.04541,0.4834-0.10254,0.66895-0.1709
			s0.34009-0.14307,0.46387-0.22461c0.12354-0.08105,0.22461-0.16113,0.30273-0.23926v-2.45117h-2.66602v-2.1582h5.5957V56.10254z"
			/>
		<path fill="#FFFFFF" d="M48.10046,52.88965v5.00977h-2.92969V43.68066h5.54688c0.83984,0,1.59009,0.11719,2.25098,0.35156
			c0.66064,0.23438,1.2207,0.56152,1.67969,0.98145s0.80884,0.91797,1.0498,1.49414
			c0.24072,0.57617,0.36133,1.20313,0.36133,1.87988c0,0.69043-0.12061,1.31201-0.36133,1.86523
			c-0.24097,0.55371-0.59082,1.02539-1.0498,1.41602s-1.01904,0.69189-1.67969,0.90332
			c-0.66089,0.21191-1.41113,0.31738-2.25098,0.31738H48.10046z M48.10046,50.5166h2.61719c0.4165,0,0.77637-0.05176,1.0791-0.15625
			c0.30273-0.104,0.55005-0.24902,0.74219-0.43457c0.19189-0.18555,0.3335-0.4082,0.4248-0.66895
			c0.09106-0.26025,0.13672-0.54346,0.13672-0.84961c0-0.30566-0.04565-0.60059-0.13672-0.88379
			c-0.09131-0.2832-0.23291-0.53369-0.4248-0.75195c-0.19214-0.21777-0.43945-0.39209-0.74219-0.52246
			c-0.30273-0.12988-0.6626-0.19531-1.0791-0.19531h-2.61719V50.5166z"/>
		<path fill="#FFFFFF" d="M63.06116,48.58301l2.66602-4.90234h3.36914l-4.14063,7.05078l4.24805,7.16797h-3.4082l-2.73438-4.98047
			l-2.73438,4.98047h-3.4082l4.24805-7.16797L57.026,43.68066h3.36914L63.06116,48.58301z"/>
	</g>
	<path fill="#FFFFFF" d="M65.72668,40.63574c-0.82837,0-1.5-0.67139-1.5-1.5V28.03125h-29.1665v11.10449
		c0,0.82861-0.67163,1.5-1.5,1.5s-1.5-0.67139-1.5-1.5V26.53125c0-0.82861,0.67163-1.5,1.5-1.5h32.1665
		c0.82837,0,1.5,0.67139,1.5,1.5v12.60449C67.22668,39.96436,66.55505,40.63574,65.72668,40.63574z"/>
	<path fill="#FFFFFF" d="M65.72668,74.96875h-32.1665c-0.82837,0-1.5-0.67139-1.5-1.5V62.88623c0-0.82861,0.67163-1.5,1.5-1.5
		s1.5,0.67139,1.5,1.5v9.08252h29.1665v-9c0-0.82861,0.67163-1.5,1.5-1.5s1.5,0.67139,1.5,1.5v10.5
		C67.22668,74.29736,66.55505,74.96875,65.72668,74.96875z"/>
</g>
</svg>
