<?xml version="1.0" encoding="utf-8"?>
<!-- Generator: Adobe Illustrator 17.0.0, SVG Export Plug-In . SVG Version: 6.00 Build 0)  -->
<!DOCTYPE svg PUBLIC "-//W3C//DTD SVG 1.1//EN" "http://www.w3.org/Graphics/SVG/1.1/DTD/svg11.dtd">
<svg version="1.1" id="Слой_1" xmlns="http://www.w3.org/2000/svg" xmlns:xlink="http://www.w3.org/1999/xlink" x="0px" y="0px"
	 width="45px" height="45px" viewBox="0 0 45 45" enable-background="new 0 0 45 45" xml:space="preserve">
<path fill="#9C9C9B" d="M37.65968,34.60539l-9.0512-9.08077c3.21741-4.68941,2.75767-11.1718-1.39697-15.34125
	c-2.2682-2.27727-5.2843-3.53258-8.49129-3.53258c-3.20679,0-6.22115,1.25531-8.48936,3.53258
	c-4.68251,4.6994-4.68251,12.34252,0,17.03811c2.2682,2.27728,5.28257,3.52901,8.48936,3.52901
	c2.45426,0,4.79368-0.73849,6.77469-2.10328l9.04695,9.07995c0.39991,0.40367,0.93318,0.62206,1.50332,0.62206
	c0.56667,0,1.10168-0.21839,1.50159-0.62206l0.11291-0.11112C38.48728,36.78278,38.48921,35.43493,37.65968,34.60539z
	 M11.03261,26.42156c-4.24362-4.25476-4.24362-11.18328,0-15.43829c2.05358-2.05884,4.78442-3.19569,7.68761-3.19569
	c2.90532,0,5.63249,1.13685,7.68954,3.19569c4.22316,4.23619,4.23841,11.12036,0.05269,15.37976l-0.11156,0.11218
	c-2.04876,2.02675-4.75219,3.14204-7.63067,3.14204C15.81703,29.61726,13.08619,28.48421,11.03261,26.42156z"/>
</svg>
