<?xml version="1.0" encoding="utf-8"?>
<!-- Generator: Adobe Illustrator 17.0.0, SVG Export Plug-In . SVG Version: 6.00 Build 0)  -->
<!DOCTYPE svg PUBLIC "-//W3C//DTD SVG 1.1//EN" "http://www.w3.org/Graphics/SVG/1.1/DTD/svg11.dtd">
<svg version="1.1" id="Слой_1" xmlns="http://www.w3.org/2000/svg" xmlns:xlink="http://www.w3.org/1999/xlink" x="0px" y="0px"
	 width="45px" height="45px" viewBox="0 0 45 45" enable-background="new 0 0 45 45" xml:space="preserve">
<g>
	<path fill="#FFFFFF" d="M22.5001,38.08551c-1.95251,0-3.54179-1.58289-3.55459-3.53321
		c-0.85234-0.2521-1.67476-0.59176-2.45447-1.01683c-1.3415,1.32658-3.67424,1.32231-5.01039-0.01712
		c-0.67182-0.66859-1.04139-1.5615-1.04139-2.51211c0-0.94208,0.36312-1.82859,1.02536-2.49932
		c-0.42617-0.77971-0.76692-1.60214-1.01683-2.45234C8.49747,26.04179,6.91459,24.45246,6.91459,22.5
		s1.58289-3.54393,3.53321-3.55459c0.24992-0.85234,0.5917-1.67263,1.01683-2.45447
		c-0.66225-0.67072-1.02646-1.55724-1.02536-2.50145c0.00104-0.94847,0.3717-1.84139,1.04243-2.50998
		c1.33407-1.3351,3.66353-1.34369,5.00826-0.01498c0.78081-0.42507,1.60323-0.76686,2.45557-1.01683
		c0.0128-1.95032,1.60208-3.53321,3.55459-3.53321c1.95459,0,3.54387,1.58289,3.55563,3.53321
		c0.85343,0.24997,1.67585,0.59176,2.45551,1.01683c1.33297-1.32231,3.67211-1.32231,5.00935,0.01712
		c0.67078,0.66646,1.04029,1.55937,1.04029,2.50785c0.00219,0.94421-0.36208,1.83072-1.02427,2.50145
		c0.42617,0.77971,0.76582,1.60214,1.01683,2.45447c1.94923,0.01066,3.53217,1.60213,3.53217,3.55459
		s-1.58294,3.54179-3.53217,3.55459c-0.25101,0.8502-0.59066,1.67263-1.01574,2.45447
		c0.66006,0.66859,1.02317,1.55511,1.02317,2.49718c0,0.95061-0.36951,1.84352-1.04029,2.51211
		c-1.33511,1.33942-3.66566,1.34369-5.00935,0.01712c-0.77966,0.42508-1.60208,0.76473-2.45551,1.01683
		C26.04397,36.50263,24.4536,38.08551,22.5001,38.08551z M16.33294,32.26873c0.09504,0,0.19228,0.02565,0.27983,0.07689
		c0.95061,0.56824,1.9781,0.99545,3.05476,1.27101c0.26703,0.06836,0.44219,0.32686,0.40588,0.60029
		c-0.02138,0.15591-0.03418,0.23499-0.03418,0.31401c0,1.35649,1.10439,2.46087,2.46087,2.46087
		c1.35753,0,2.46191-1.10439,2.46191-2.46087c0-0.07902-0.01176-0.15377-0.02242-0.22858
		c-0.04058-0.27557,0.12392-0.61735,0.39522-0.68571c1.0766-0.27556,2.1041-0.70277,3.05257-1.27101
		c0.23602-0.14311,0.53833-0.08542,0.71026,0.13032c0.05234,0.06622,0.09505,0.13671,0.13458,0.20934
		c1.00081,1.05101,2.58583,0.98905,3.51505,0.05983c0.46461-0.46357,0.71989-1.08092,0.71989-1.73885
		c0-0.65793-0.25528-1.27528-0.71989-1.74098c-0.13026-0.07262-0.20294-0.11533-0.26911-0.16876
		c-0.21579-0.16876-0.2713-0.47424-0.13032-0.70922c0.56928-0.95487,0.99649-1.98237,1.26888-3.05257
		c0.06836-0.26916,0.3204-0.44646,0.5981-0.40801c0.16663,0.02138,0.24035,0.03418,0.31619,0.03418
		c1.35752,0,2.46087-1.10438,2.46087-2.46087s-1.10335-2.46087-2.46087-2.46087c-0.07585,0-0.14957,0.01066-0.22432,0.02138
		c-0.27983,0.03418-0.62161-0.12818-0.68997-0.39521c-0.27239-1.07447-0.70069-2.09983-1.27101-3.05257
		c-0.14207-0.23712-0.08438-0.54259,0.13458-0.71349c0.06622-0.0513,0.13671-0.09401,0.20824-0.13245
		c0.52444-0.49775,0.77971-1.11724,0.77862-1.7773c0-0.6558-0.25631-1.27314-0.71989-1.73459
		c-0.92922-0.93349-2.54952-0.93136-3.47978,0c-0.07585,0.13245-0.11752,0.20294-0.16986,0.26917
		c-0.17193,0.2136-0.47424,0.26703-0.71026,0.12818c-0.95061-0.56824-1.97706-0.99545-3.05257-1.26888
		c-0.26813-0.06622-0.44328-0.32473-0.40801-0.60029c0.02346-0.16236,0.03522-0.23712,0.03522-0.31401
		c0-1.35649-1.10438-2.46087-2.46191-2.46087c-1.35649,0-2.46087,1.10438-2.46087,2.46087c0,0.07902,0.0128,0.15596,0.02346,0.23285
		c0.03844,0.27556-0.126,0.61308-0.39625,0.68144c-1.07557,0.27343-2.10306,0.70064-3.05367,1.26888
		c-0.23499,0.14311-0.53937,0.08755-0.70917-0.12818c-0.05233-0.06623-0.094-0.13672-0.13458-0.20934
		c-1.0019-1.05314-2.58692-0.99118-3.51401-0.05983c-0.46571,0.46144-0.72202,1.07879-0.72202,1.73459
		c0,0.66006,0.25527,1.27954,0.72093,1.74525c0.13032,0.07049,0.2019,0.1132,0.26813,0.1645
		c0.21787,0.17089,0.27556,0.47637,0.13349,0.71349c-0.57141,0.95274-0.99868,1.9781-1.26997,3.05257
		c-0.06836,0.26703-0.32254,0.44219-0.59919,0.40801c-0.16553-0.02352-0.24029-0.03418-0.31614-0.03418
		c-1.35753,0-2.46191,1.10438-2.46191,2.46087s1.10438,2.46087,2.46191,2.46087c0.07585,0,0.15061-0.0128,0.22536-0.02352
		c0.27879-0.03631,0.62162,0.12605,0.68997,0.39735c0.2713,1.07234,0.69856,2.0977,1.26893,3.05257
		c0.14098,0.23499,0.08542,0.53833-0.13032,0.70922c-0.06732,0.05343-0.13885,0.09614-0.21147,0.13671
		c-0.5234,0.49775-0.77971,1.1151-0.77971,1.77303c0,0.65793,0.25631,1.27528,0.71989,1.73885
		c0.93136,0.93136,2.55165,0.92922,3.48088,0c0.07476-0.13245,0.11643-0.20294,0.16985-0.26917
		C16.0104,32.33922,16.17058,32.26873,16.33294,32.26873z"/>
	<path fill="#FFFFFF" d="M22.5001,27.05644c-2.51217,0-4.55649-2.04427-4.55649-4.55644c0-2.5143,2.04433-4.55857,4.55649-4.55857
		c2.51321,0,4.55748,2.04427,4.55748,4.55857C27.05758,25.01217,25.01331,27.05644,22.5001,27.05644z M22.5001,19.03515
		c-1.90974,0-3.46277,1.55297-3.46277,3.46485c0,1.90974,1.55303,3.46272,3.46277,3.46272
		c1.90969,0,3.46376-1.55297,3.46376-3.46272C25.96386,20.58812,24.40979,19.03515,22.5001,19.03515z"/>
</g>
</svg>
