<?xml version="1.0" encoding="utf-8"?>
<!-- Generator: Adobe Illustrator 17.0.0, SVG Export Plug-In . SVG Version: 6.00 Build 0)  -->
<!DOCTYPE svg PUBLIC "-//W3C//DTD SVG 1.1//EN" "http://www.w3.org/Graphics/SVG/1.1/DTD/svg11.dtd">
<svg version="1.1" id="Слой_1" xmlns="http://www.w3.org/2000/svg" xmlns:xlink="http://www.w3.org/1999/xlink" x="0px" y="0px"
	 width="115px" height="115px" viewBox="0 0 115 115" enable-background="new 0 0 115 115" xml:space="preserve">
<g>
	<circle fill="#9C9C9B" cx="57.5" cy="57.5" r="48.5"/>
	<path fill="#5D5D5D" d="M57.50017,76.70229c-10.58826,0-19.20239-8.61426-19.20239-19.20263
		c0-7.38379,4.12024-13.99268,10.75281-17.24805c0.74377-0.36426,1.64246-0.05811,2.00745,0.68555
		c0.36499,0.74414,0.05798,1.64258-0.68567,2.00781c-5.59741,2.74707-9.07458,8.32422-9.07458,14.55469
		c0,8.93408,7.26831,16.20263,16.20239,16.20263s16.20239-7.26855,16.20239-16.20263c0-6.23096-3.47742-11.80811-9.07532-14.55469
		c-0.74377-0.36523-1.05078-1.26367-0.68591-2.00732c0.36499-0.74316,1.26379-1.05127,2.00744-0.68604
		c6.63318,3.25488,10.75378,9.86377,10.75378,17.24805C76.70256,68.08803,68.08842,76.70229,57.50017,76.70229z"/>
	<path fill="#5D5D5D" d="M57.50005,54.31459c-0.82837,0-1.5-0.67139-1.5-1.5v-18.75c0-0.82861,0.67163-1.5,1.5-1.5
		s1.5,0.67139,1.5,1.5v18.75C59.00005,53.64321,58.32842,54.31459,57.50005,54.31459z"/>
</g>
</svg>
